# xmcd
#
# Track frame offsets:
#	150
#	9808
#	19423
#	31136
#	45429
#	57683
#	70682
#	84382
#	95849
#	107198
#	118798
#	128715
#	141387
#	154188
#	163965
#	175577
#	186515
#	197788
#	208246
#	221827
#	232056
#	242805
#	254235
#	265257
#	276759
#	288921
#	301585
#	315273
#
# Disc length: 4340 seconds
# Revision: 0
# Processed by: cddbd v1.5.2PL0 Copyright (c) Steve Scherf et al.
# Submitted via: dBpowerAMP V12.0
#
DISCID=a510f21c
DTITLE=Various Artist - Where Southern Soul Began: 2 1955-1962
DYEAR=1962
DGENRE=Rhythm and Blues
TTITLE0=Fontella Bass - Honey Bee
TTITLE1=Donald Hines - Baby Tell It Like It Is
TTITLE2=Ted Taylor - Be Ever Wonderful
TTITLE3=The 5 Royales - Show Me
TTITLE4=Bud Harper - Down The Aisle
TTITLE5=Carol Fran - Emmitt Lee
TTITLE6=Ray Charles - A Fool For You
TTITLE7=Otis Redding - These Arms Of Mine
TTITLE8=Carl Greenstreet - Hey Mama
TTITLE9=Roscoe Shelton - We've Been Wrong
TTITLE10=Rufus Thomas - I Didn't Believe
TTITLE11=Willie Harper - I'll Never Leave You
TTITLE12=Kip Anderson - I Wanna Be The Only One
TTITLE13=Larry Birdsong - It Won't Be This Way Always
TTITLE14=Finnimo - Just Ask For What You Want
TTITLE15=Bobby "Blue" Bland - Loan A Helping Hand
TTITLE16=Sam and Dave - No More Pain
TTITLE17=Arthur Alexander - Soldier Of Love
TTITLE18=Grover Mitchell - Everywhere I Go
TTITLE19=Joe Perkins - Until You Were Gone
TTITLE20=Joe Medwick - You Ain't Treating Her Right
TTITLE21=Tabby Thomas - Hoodoo Party
TTITLE22=Freddie North - Ninety Pound Woman
TTITLE23=Al "TNT" Briggs - I Don't Think I Can Make It
TTITLE24=Rodge Martin - I'm Standing By
TTITLE25=Charles James - Thief In The Night
TTITLE26=Arthur K. Adams - The Same Thing
TTITLE27=Joe Tex - Meet Me In Church
EXTD=
EXTT0=
EXTT1=
EXTT2=
EXTT3=
EXTT4=
EXTT5=
EXTT6=
EXTT7=
EXTT8=
EXTT9=
EXTT10=
EXTT11=
EXTT12=
EXTT13=
EXTT14=
EXTT15=
EXTT16=
EXTT17=
EXTT18=
EXTT19=
EXTT20=
EXTT21=
EXTT22=
EXTT23=
EXTT24=
EXTT25=
EXTT26=
EXTT27=
PLAYORDER=
